<mxfile host="app.diagrams.net" modified="2020-11-30T07:20:26.069Z" agent="5.0 (Windows NT 10.0; Win64; x64) AppleWebKit/537.36 (KHTML, like Gecko) Chrome/86.0.4240.183 Safari/537.36 OPR/72.0.3815.320" etag="nkfyzJOS5XaK95TLpC8X" version="13.10.4" type="github">
  <diagram id="C5RBs43oDa-KdzZeNtuy" name="Page-1">
    <mxGraphModel dx="688" dy="378" grid="1" gridSize="10" guides="1" tooltips="1" connect="1" arrows="1" fold="1" page="1" pageScale="1" pageWidth="827" pageHeight="1169" math="0" shadow="0">
      <root>
        <mxCell id="WIyWlLk6GJQsqaUBKTNV-0" />
        <mxCell id="WIyWlLk6GJQsqaUBKTNV-1" parent="WIyWlLk6GJQsqaUBKTNV-0" />
        <mxCell id="NKaobeRLANraEaBGM2nE-0" value="Fish" style="swimlane;fontStyle=1;align=center;verticalAlign=top;childLayout=stackLayout;horizontal=1;startSize=20;horizontalStack=0;resizeParent=1;resizeParentMax=0;resizeLast=0;collapsible=1;marginBottom=0;" vertex="1" parent="WIyWlLk6GJQsqaUBKTNV-1">
          <mxGeometry x="350" y="160" width="190" height="106" as="geometry" />
        </mxCell>
        <mxCell id="NKaobeRLANraEaBGM2nE-1" value="+Color:String=&quot;blue&quot;" style="text;strokeColor=none;fillColor=none;align=left;verticalAlign=top;spacingLeft=4;spacingRight=4;overflow=hidden;rotatable=0;points=[[0,0.5],[1,0.5]];portConstraint=eastwest;" vertex="1" parent="NKaobeRLANraEaBGM2nE-0">
          <mxGeometry y="20" width="190" height="26" as="geometry" />
        </mxCell>
        <mxCell id="NKaobeRLANraEaBGM2nE-2" value="" style="line;strokeWidth=1;fillColor=none;align=left;verticalAlign=middle;spacingTop=-1;spacingLeft=3;spacingRight=3;rotatable=0;labelPosition=right;points=[];portConstraint=eastwest;" vertex="1" parent="NKaobeRLANraEaBGM2nE-0">
          <mxGeometry y="46" width="190" height="8" as="geometry" />
        </mxCell>
        <mxCell id="NKaobeRLANraEaBGM2nE-3" value="+Swim():void&#xa;+SetColor(warna:String):void&#xa;+GetColor():String" style="text;strokeColor=none;fillColor=none;align=left;verticalAlign=top;spacingLeft=4;spacingRight=4;overflow=hidden;rotatable=0;points=[[0,0.5],[1,0.5]];portConstraint=eastwest;" vertex="1" parent="NKaobeRLANraEaBGM2nE-0">
          <mxGeometry y="54" width="190" height="52" as="geometry" />
        </mxCell>
        <mxCell id="NKaobeRLANraEaBGM2nE-12" value="Shark" style="swimlane;fontStyle=1;align=center;verticalAlign=top;childLayout=stackLayout;horizontal=1;startSize=26;horizontalStack=0;resizeParent=1;resizeParentMax=0;resizeLast=0;collapsible=1;marginBottom=0;" vertex="1" parent="WIyWlLk6GJQsqaUBKTNV-1">
          <mxGeometry x="630" y="160" width="160" height="112" as="geometry" />
        </mxCell>
        <mxCell id="NKaobeRLANraEaBGM2nE-13" value="-SharpTeeth:int=50" style="text;strokeColor=none;fillColor=none;align=left;verticalAlign=top;spacingLeft=4;spacingRight=4;overflow=hidden;rotatable=0;points=[[0,0.5],[1,0.5]];portConstraint=eastwest;" vertex="1" parent="NKaobeRLANraEaBGM2nE-12">
          <mxGeometry y="26" width="160" height="24" as="geometry" />
        </mxCell>
        <mxCell id="NKaobeRLANraEaBGM2nE-14" value="" style="line;strokeWidth=1;fillColor=none;align=left;verticalAlign=middle;spacingTop=-1;spacingLeft=3;spacingRight=3;rotatable=0;labelPosition=right;points=[];portConstraint=eastwest;" vertex="1" parent="NKaobeRLANraEaBGM2nE-12">
          <mxGeometry y="50" width="160" height="8" as="geometry" />
        </mxCell>
        <mxCell id="NKaobeRLANraEaBGM2nE-15" value="+Eat():void&#xa;+SetSharpTeeth(teeth:int):void&#xa;+Swim():void" style="text;strokeColor=none;fillColor=none;align=left;verticalAlign=top;spacingLeft=4;spacingRight=4;overflow=hidden;rotatable=0;points=[[0,0.5],[1,0.5]];portConstraint=eastwest;" vertex="1" parent="NKaobeRLANraEaBGM2nE-12">
          <mxGeometry y="58" width="160" height="54" as="geometry" />
        </mxCell>
        <mxCell id="NKaobeRLANraEaBGM2nE-16" value="Aquarium" style="swimlane;fontStyle=1;align=center;verticalAlign=top;childLayout=stackLayout;horizontal=1;startSize=26;horizontalStack=0;resizeParent=1;resizeParentMax=0;resizeLast=0;collapsible=1;marginBottom=0;" vertex="1" parent="WIyWlLk6GJQsqaUBKTNV-1">
          <mxGeometry x="110" y="160" width="160" height="108" as="geometry" />
        </mxCell>
        <mxCell id="NKaobeRLANraEaBGM2nE-17" value="+length:int&#xa;+height:int&#xa;+width:int" style="text;strokeColor=none;fillColor=none;align=left;verticalAlign=top;spacingLeft=4;spacingRight=4;overflow=hidden;rotatable=0;points=[[0,0.5],[1,0.5]];portConstraint=eastwest;" vertex="1" parent="NKaobeRLANraEaBGM2nE-16">
          <mxGeometry y="26" width="160" height="48" as="geometry" />
        </mxCell>
        <mxCell id="NKaobeRLANraEaBGM2nE-18" value="" style="line;strokeWidth=1;fillColor=none;align=left;verticalAlign=middle;spacingTop=-1;spacingLeft=3;spacingRight=3;rotatable=0;labelPosition=right;points=[];portConstraint=eastwest;" vertex="1" parent="NKaobeRLANraEaBGM2nE-16">
          <mxGeometry y="74" width="160" height="8" as="geometry" />
        </mxCell>
        <mxCell id="NKaobeRLANraEaBGM2nE-19" value="+fillFish():void" style="text;strokeColor=none;fillColor=none;align=left;verticalAlign=top;spacingLeft=4;spacingRight=4;overflow=hidden;rotatable=0;points=[[0,0.5],[1,0.5]];portConstraint=eastwest;" vertex="1" parent="NKaobeRLANraEaBGM2nE-16">
          <mxGeometry y="82" width="160" height="26" as="geometry" />
        </mxCell>
        <mxCell id="NKaobeRLANraEaBGM2nE-20" value="" style="endArrow=block;endSize=16;endFill=0;html=1;entryX=1;entryY=0.5;entryDx=0;entryDy=0;" edge="1" parent="WIyWlLk6GJQsqaUBKTNV-1" source="NKaobeRLANraEaBGM2nE-12" target="NKaobeRLANraEaBGM2nE-0">
          <mxGeometry width="160" relative="1" as="geometry">
            <mxPoint x="380" y="230" as="sourcePoint" />
            <mxPoint x="540" y="230" as="targetPoint" />
          </mxGeometry>
        </mxCell>
        <mxCell id="NKaobeRLANraEaBGM2nE-21" value="" style="endArrow=diamondThin;endFill=1;endSize=24;html=1;" edge="1" parent="WIyWlLk6GJQsqaUBKTNV-1" source="NKaobeRLANraEaBGM2nE-0" target="NKaobeRLANraEaBGM2nE-16">
          <mxGeometry width="160" relative="1" as="geometry">
            <mxPoint x="380" y="230" as="sourcePoint" />
            <mxPoint x="540" y="230" as="targetPoint" />
          </mxGeometry>
        </mxCell>
        <mxCell id="NKaobeRLANraEaBGM2nE-22" value="1" style="edgeLabel;html=1;align=center;verticalAlign=middle;resizable=0;points=[];" vertex="1" connectable="0" parent="NKaobeRLANraEaBGM2nE-21">
          <mxGeometry x="0.76" y="-3" relative="1" as="geometry">
            <mxPoint y="-12.65" as="offset" />
          </mxGeometry>
        </mxCell>
        <mxCell id="NKaobeRLANraEaBGM2nE-23" value="0..*" style="text;html=1;align=center;verticalAlign=middle;resizable=0;points=[];autosize=1;" vertex="1" parent="WIyWlLk6GJQsqaUBKTNV-1">
          <mxGeometry x="325" y="190" width="30" height="20" as="geometry" />
        </mxCell>
        <mxCell id="NKaobeRLANraEaBGM2nE-24" value="Has" style="text;html=1;align=center;verticalAlign=middle;resizable=0;points=[];autosize=1;" vertex="1" parent="WIyWlLk6GJQsqaUBKTNV-1">
          <mxGeometry x="290" y="190" width="40" height="20" as="geometry" />
        </mxCell>
      </root>
    </mxGraphModel>
  </diagram>
</mxfile>
